HIERARCHY
ROOT hip
{
	OFFSET 0.000000 0.000000 0.000000 
	CHANNELS 6 Xposition Yposition Zposition Xrotation Zrotation Yrotation
	JOINT abdomen
	{
		OFFSET 0.000000 3.402643 0.000000 
		CHANNELS 3 Xrotation Zrotation Yrotation
		JOINT chest
		{
			OFFSET 0.000000 8.438565 -0.680529 
			CHANNELS 3 Xrotation Zrotation Yrotation
			JOINT neck
			{
				OFFSET 0.000000 10.207942 -0.272212 
				CHANNELS 3 Xrotation Zrotation Yrotation
				JOINT head
				{
					OFFSET 0.000000 3.130431 0.000000 
					CHANNELS 3 Xrotation Zrotation Yrotation
					End Site
					{
						OFFSET 0.000000 3.130435 0.000000 
					}
				}
			}
			JOINT lCollar
			{
				OFFSET 3.470700 6.669187 -0.816635 
				CHANNELS 3 Yrotation Zrotation Xrotation
				JOINT lShldr
				{
					OFFSET 3.198488 0.000000 0.000000 
					CHANNELS 3 Zrotation Yrotation Xrotation
					JOINT lForeArm
					{
						OFFSET 10.139888 0.000000 0.000000 
						CHANNELS 3 Yrotation Zrotation Xrotation
						JOINT lHand
						{
							OFFSET 8.370511 0.000000 0.000000 
							CHANNELS 3 Zrotation Yrotation Xrotation
							End Site
							{
								OFFSET 4.083176 0.000000 0.000000 
							}
						}
					}
				}
			}
			JOINT rCollar
			{
				OFFSET -3.470700 6.669187 -0.816635 
				CHANNELS 3 Yrotation Zrotation Xrotation
				JOINT rShldr
				{
					OFFSET -3.198488 0.000000 0.000000 
					CHANNELS 3 Zrotation Yrotation Xrotation
					JOINT rForeArm
					{
						OFFSET -10.139888 0.000000 0.000000 
						CHANNELS 3 Yrotation Zrotation Xrotation
						JOINT rHand
						{
							OFFSET -8.370511 0.000000 0.000000 
							CHANNELS 3 Zrotation Yrotation Xrotation
							End Site
							{
								OFFSET -4.083176 0.000000 0.000000 
							}
						}
					}
				}
			}
		}
	}
	JOINT lThigh
	{
		OFFSET 5.308129 -1.633274 1.361059 
		CHANNELS 3 Xrotation Zrotation Yrotation
		JOINT lShin
		{
			OFFSET -2.041588 -20.007561 0.000000 
			CHANNELS 3 Xrotation Zrotation Yrotation
			JOINT lFoot
			{
				OFFSET 0.000000 -19.190928 -1.224953 
				CHANNELS 3 Xrotation Yrotation Zrotation
				End Site
				{
					OFFSET 0.000000 -2.449906 4.627600 
				}
			}
		}
	}
	JOINT rThigh
	{
		OFFSET -5.308129 -1.633274 1.361059 
		CHANNELS 3 Xrotation Zrotation Yrotation
		JOINT rShin
		{
			OFFSET 2.041588 -20.007561 0.000000 
			CHANNELS 3 Xrotation Zrotation Yrotation
			JOINT rFoot
			{
				OFFSET 0.000000 -19.190928 -1.224953 
				CHANNELS 3 Xrotation Yrotation Zrotation
				End Site
				{
					OFFSET 0.000000 -2.449906 4.627600 
				}
			}
		}
	}
}
MOTION
Frames: 18
Frame Time: 0.016667
0.390795 52.239361 -62.392082 -1.864953 1.708870 0.664641 40.074459 1.762906 0.882606 0.108444 2.751173 -8.345732 -16.694157 -1.257017 0.308663 2.118084 -5.837172 3.749834 -7.810179 -12.943956 -0.676388 -56.842247 -0.688548 -6.500340 -102.733635 -4.287591 -0.535927 -27.943724 -13.702895 9.391391 8.341931 10.691235 -0.557972 65.372673 -12.412826 -26.718418 86.569946 5.000000 2.249687 19.689537 0.970896 -5.056596 7.108816 2.450720 -8.844975 31.120718 -8.371098 -5.746564 -33.402912 13.587153 2.599415 -25.116188 -6.406190 -5.941471 78.708023 1.953445 12.833973 -10.694824 -13.644745 3.942452 
-0.064399 52.294258 -58.858639 -1.319937 0.058573 -1.542968 39.270924 2.520367 1.922990 0.030956 3.283229 -8.983893 -16.516279 -0.933110 0.230051 2.219497 -6.238694 5.706974 -7.697890 -11.676196 -0.608908 -57.528667 -2.371080 -4.416415 -103.885315 -1.811014 0.029643 -28.544170 -13.311692 8.517163 8.247582 10.018333 -0.521379 65.107010 -12.654902 -26.473763 86.471298 5.000000 2.352954 19.507845 0.455422 -4.034434 13.036841 4.266835 -5.754319 27.194983 -7.237323 -4.260459 -34.485004 13.252292 0.277051 -29.710373 -4.003423 -2.976495 72.207169 3.604229 13.153723 -9.164212 -14.715596 3.912137 
-0.555337 52.356041 -55.151588 -0.856655 -0.877913 -2.725037 38.177429 3.233175 1.716096 0.162291 3.814471 -9.603703 -16.309048 -0.420469 0.093245 2.318978 -6.619872 7.707344 -7.507405 -10.232882 -0.530742 -58.122608 -3.089796 -3.577652 -105.259140 -1.376717 0.142368 -28.588148 -12.833950 7.733130 8.282991 9.431794 -0.500609 64.632881 -12.839530 -26.092314 86.870911 5.000000 2.100980 19.401134 -0.339626 -2.800657 18.546278 5.328962 -3.521958 23.640135 -6.338095 -3.143594 -32.276653 12.917429 -1.927840 -32.008400 -2.548567 -1.171880 63.479923 5.177254 12.037720 -8.639315 -15.179176 4.285340 
-1.070109 52.422413 -51.328777 -0.471330 -1.345538 -3.213839 36.874260 3.868740 0.642375 0.416044 4.335198 -10.214386 -16.084169 0.227355 -0.064028 2.408583 -6.979020 9.740410 -7.259419 -8.672521 -0.448660 -58.633682 -3.188649 -3.589836 -106.781715 -2.284561 -0.136058 -28.276558 -12.294011 7.035097 8.395720 8.914903 -0.472296 64.012093 -12.983098 -25.614489 87.622665 5.000000 1.593521 19.316313 -1.322463 -1.394387 23.764967 5.974792 -1.887834 20.297470 -5.594803 -2.344907 -27.870008 12.333965 -4.004419 -32.784122 -1.816126 0.010269 53.163013 6.435522 9.822525 -8.861321 -15.225106 4.960192 
-1.577450 52.454102 -47.487526 -0.183414 -1.306131 -3.516714 35.561886 4.044691 -0.791765 0.710552 4.854769 -10.836114 -15.881868 0.939843 -0.250821 2.475225 -7.353405 11.777253 -6.945783 -7.170657 -0.369790 -59.105274 -3.158864 -3.721521 -108.219177 -3.521901 -0.567735 -27.940538 -11.857335 6.582572 8.488125 8.448217 -0.438516 63.292030 -12.960445 -24.883623 88.410583 5.000000 1.060299 19.272289 -2.236529 0.034705 28.326658 6.092491 -0.911309 17.844685 -4.939974 -1.745567 -21.103582 11.298149 -6.150778 -33.134407 -1.611187 0.964277 42.965828 7.239024 7.539269 -9.180927 -15.071285 5.764153 
-2.055081 52.347038 -43.572475 -0.275124 0.760628 -3.066655 34.317818 2.496907 -3.606203 1.164238 5.333847 -11.575367 -15.774706 1.894578 -0.533706 2.497855 -7.731099 13.829053 -6.342419 -5.883334 -0.302243 -59.434898 -2.564048 -4.350962 -109.284813 -5.000000 -1.507079 -27.482170 -11.845517 7.199957 8.466730 8.204409 -0.424488 62.203262 -12.241838 -23.130735 89.409317 5.000000 0.409969 19.532715 -2.866980 1.592054 30.193907 4.745378 -2.757429 19.023561 -4.834487 -1.837331 -4.922440 8.834167 -8.218225 -31.749350 -3.622514 1.114911 33.462173 7.596675 5.701258 -9.962448 -14.047781 7.443680 
-2.532712 52.239971 -39.657433 -0.354033 2.829075 -2.620262 33.209423 0.871235 -6.394334 1.621966 5.811853 -12.286790 -15.683910 2.850703 -0.807454 2.504243 -8.120027 15.875419 -5.750396 -4.605755 -0.235481 -59.776203 -1.989958 -4.982940 -110.403610 -5.000000 -2.550390 -27.018568 -11.834124 7.819597 8.455158 7.960600 -0.411887 61.144981 -11.496294 -21.409828 90.366890 5.000000 -0.193221 19.782368 -3.526229 3.149623 32.080322 3.435909 -4.628424 20.170595 -4.697184 -1.938374 11.101142 6.030645 -9.524782 -30.395432 -5.624317 1.220881 23.984045 7.636530 3.824803 -10.718401 -13.071916 9.135307 
-2.904920 52.012749 -35.900833 -0.910347 4.056711 -3.064174 33.209118 -0.067454 -7.391817 1.868347 5.831891 -12.267512 -15.826116 3.046119 -0.886333 2.473044 -8.282264 16.721350 -5.369572 -4.429296 -0.236129 -60.095654 -1.269516 -5.806348 -110.713867 -5.000000 -3.699823 -26.884033 -12.113101 7.348463 8.543317 7.812865 -0.413890 59.487637 -9.748953 -18.604195 91.106255 5.000000 -0.651769 19.446524 -3.803061 4.256349 31.015936 2.040797 -5.894073 26.992884 -5.118131 -2.967902 17.301258 4.483652 -9.436496 -28.540180 -6.698306 1.064395 19.890711 7.954202 3.279162 -10.228943 -12.423681 10.909122 
-3.250775 51.755478 -32.183846 -1.610783 5.057536 -3.754061 33.471466 -0.816692 -7.941608 2.054916 5.737486 -12.060354 -16.041988 3.043185 -0.905616 2.422340 -8.399441 17.249935 -5.047719 -4.526875 -0.241158 -60.415264 -0.510322 -6.678232 -110.865257 -5.000000 -4.868587 -26.825859 -12.466446 6.586760 8.669417 7.695813 -0.407836 57.784023 -7.669291 -15.601105 91.753311 5.000000 -1.005046 18.972429 -3.979838 5.278811 29.225830 0.604732 -6.955754 35.215355 -5.500705 -4.338311 21.025627 3.239346 -9.121058 -26.581160 -7.558156 0.814053 17.183994 8.403077 3.033024 -9.412528 -11.781063 12.711420 
-3.570612 51.457832 -28.547338 -2.417650 5.243192 -5.069592 34.077168 -0.888588 -7.516346 2.112565 5.473139 -11.273065 -16.091574 2.636831 -0.784505 2.365755 -8.579344 17.199226 -4.991141 -5.161649 -0.264990 -60.671593 0.649120 -8.063355 -110.596657 -5.000000 -6.023615 -26.829578 -12.639321 6.082416 8.844084 7.539746 -0.399761 55.705273 -4.962650 -12.143649 92.230865 5.000000 -1.184263 18.982710 -4.286481 5.998821 26.565889 -0.478891 -6.054395 44.958534 -4.954607 -5.213205 23.136114 3.136320 -9.687200 -24.634651 -7.489012 0.796858 17.280844 9.213007 3.443194 -8.352519 -10.759587 11.200385 
-3.851420 51.099617 -25.031553 -3.354987 4.165351 -7.294373 35.170601 -0.030324 -5.575170 1.970434 4.951253 -9.603204 -15.898450 1.598188 -0.469125 2.296053 -8.846875 16.251986 -5.340605 -6.595264 -0.338946 -60.866184 2.405084 -10.235679 -109.648048 -5.000000 -7.027522 -26.952360 -12.532182 5.945328 9.067130 7.315403 -0.388149 53.108841 -1.266891 -8.067560 92.523468 5.000000 -1.164269 19.716669 -4.801645 6.282743 22.600246 -0.771334 -2.246715 56.921722 -3.250572 -5.067249 22.738913 4.426591 -11.862659 -22.717075 -6.082225 1.219467 21.651966 9.976696 4.918185 -6.751410 -9.431524 4.715457 
-4.132231 50.741398 -21.515768 -4.241475 3.053277 -9.505636 36.299202 0.816932 -3.630961 1.816419 4.444932 -7.934703 -15.713959 0.549805 -0.152318 2.220658 -9.123149 15.314653 -5.691987 -8.028866 -0.414052 -61.133923 4.158127 -12.414463 -108.741425 -5.000000 -7.904047 -27.076593 -12.434463 5.814172 9.299924 7.081307 -0.376026 50.772690 2.602781 -4.165221 92.806625 5.000000 -1.090634 20.446606 -5.321341 6.544743 18.615194 -0.828696 1.578910 68.871864 -1.610172 -4.572682 22.428509 5.904058 -13.970770 -20.805389 -4.705876 1.693898 26.054407 9.985206 6.485496 -4.998310 -8.684105 -1.796845 
-4.464636 50.577030 -18.394625 -4.187794 1.395710 -11.790461 37.417286 1.876715 -1.908851 1.435360 3.937752 -5.574792 -15.361338 0.026045 -0.023694 2.386106 -8.823157 14.322451 -6.015265 -8.165400 -0.421085 -62.778019 7.257038 -16.176332 -107.678909 -5.000000 -8.575008 -27.996342 -12.120613 5.565378 9.927079 5.645908 -0.310272 47.845352 7.382295 -0.640092 93.696648 5.000000 -1.144335 20.435331 -5.628230 7.180535 11.268640 0.927987 4.380753 80.551682 -0.751674 -2.310226 22.208771 6.915278 -13.138061 -19.255842 -3.007298 3.400716 31.340347 9.983306 8.981052 -8.928522 -10.246647 -4.269531 
-4.797043 50.412663 -15.273489 -4.076427 -0.255737 -14.091959 38.534950 2.921666 -0.172653 1.035633 3.435520 -3.206069 -15.020115 -0.497715 0.104932 2.536575 -8.526808 13.343163 -6.338563 -8.301932 -0.429526 -64.642845 10.234372 -20.057497 -106.618973 -5.000000 -9.067991 -28.922884 -11.809037 5.326266 10.554232 4.213865 -0.225669 45.186749 12.334833 2.686556 94.570686 5.000000 -1.046795 20.429850 -5.931221 7.827618 4.016957 3.023887 6.901511 92.226654 -0.429376 0.117017 21.918610 8.006905 -12.272881 -17.633907 -1.377033 5.145781 36.698418 9.991710 11.644205 -12.925853 -11.628760 -6.794080 
-5.203231 50.515381 -12.149957 -3.999805 -0.851201 -14.425539 39.119499 3.269024 0.438218 1.023070 2.968310 -1.759017 -15.049973 -0.658940 0.149075 2.721715 -7.940188 11.665730 -6.458535 -7.326695 -0.377844 -66.508240 13.668634 -24.190487 -107.305130 -5.000000 -10.526458 -28.980202 -11.905719 4.601630 10.713146 1.904293 -0.096405 43.294086 16.556749 4.026220 96.470505 5.000000 -1.032649 20.092979 -6.222604 7.725650 -4.661854 4.504338 6.681623 101.515839 -0.284848 0.619353 20.266109 7.588077 -9.776432 -14.156103 -1.240132 4.947384 38.572536 9.983661 12.399274 -16.429405 -11.118762 -7.693400 
-5.658610 50.796143 -9.024819 -3.992648 -0.740804 -13.458284 39.350178 3.187562 0.262736 1.259530 2.519454 -0.918393 -15.323119 -0.583156 0.127734 2.901989 -7.166439 9.527229 -6.438698 -5.620017 -0.288656 -68.543129 17.338152 -28.589699 -109.476303 -5.000000 -13.038310 -28.450079 -12.271088 3.540902 10.555695 -0.982481 0.053116 41.775890 20.248993 4.033939 99.033592 5.000000 -0.927187 19.551262 -6.502556 7.124466 -14.369184 5.134034 4.552894 109.226601 -0.051988 -0.108611 17.728354 6.104811 -6.283388 -9.391827 -1.991549 3.362879 38.070755 9.973702 11.883555 -19.605574 -9.476020 -7.401295 
-6.126525 51.192474 -5.884464 -4.001766 -0.143071 -12.392636 39.493900 2.590745 -0.158336 1.446698 2.031250 -0.155928 -15.596203 -0.449437 0.097628 3.061787 -6.382677 7.379469 -6.451227 -3.834207 -0.205447 -70.498093 20.915169 -32.751522 -112.132423 -5.000000 -15.976316 -28.074291 -12.577930 2.389374 10.278651 -3.820485 0.200320 40.259903 23.446369 3.630141 101.688416 5.000000 -0.620373 18.987837 -6.800153 6.643652 -23.884161 4.774708 2.843626 115.538879 0.542632 -1.282599 15.534719 5.042603 -4.061241 -4.474851 -2.983657 1.893471 36.729507 9.974328 11.054751 -22.194370 -8.055759 -6.656949 
-6.644607 52.051041 -2.683216 -4.104758 2.445132 -10.927904 39.302792 -0.047208 -1.607544 1.435196 1.415984 0.371219 -15.849622 -0.096557 0.014609 3.243142 -5.544236 5.130641 -6.640918 -1.747122 -0.097714 -71.060783 24.659058 -35.205414 -115.333061 -5.000000 -19.095245 -28.349035 -12.713720 0.896052 9.531274 -6.430923 0.356642 38.826660 24.633684 1.867288 104.706711 3.531393 -0.408064 18.331888 -7.101303 6.549888 -32.475300 1.796309 3.370009 116.227242 2.251476 -4.146423 14.366558 6.891696 -6.156887 1.122941 -5.368178 0.814546 32.059540 9.984098 9.075650 -22.633528 -7.579341 -4.473584 
